<svg width="250" height="250" xmlns="http://www.w3.org/2000/svg">
    <defs>
      <style>
        .cell { width: 50px; height: 50px; }
        .border { stroke: black; stroke-width: 2; fill: none; }
      </style>
    </defs>

    <rect x="0" y="0" class="cell" fill="green"/>
    <rect x="50" y="0" class="cell" fill="green"/>
    <rect x="100" y="0" class="cell" fill="green"/>
    <rect x="150" y="0" class="cell" fill="green"/>
    <rect x="200" y="0" class="cell" fill="green"/>
    <rect x="0" y="50" class="cell" fill="green"/>
    <rect x="50" y="50" class="cell" fill="green"/>
    <rect x="100" y="50" class="cell" fill="green"/>
    <rect x="150" y="50" class="cell" fill="green"/>
    <rect x="200" y="50" class="cell" fill="green"/>
    <rect x="0" y="100" class="cell" fill="green"/>
    <rect x="50" y="100" class="cell" fill="green"/>
    <rect x="100" y="100" class="cell" fill="green"/>
    <rect x="150" y="100" class="cell" fill="green"/>
    <rect x="200" y="100" class="cell" fill="green"/>
    <rect x="0" y="150" class="cell" fill="green"/>
    <rect x="50" y="150" class="cell" fill="green"/>
    <rect x="100" y="150" class="cell" fill="green"/>
    <rect x="150" y="150" class="cell" fill="green"/>
    <rect x="200" y="150" class="cell" fill="green"/>
    <rect x="0" y="200" class="cell" fill="green"/>
    <rect x="50" y="200" class="cell" fill="green"/>
    <rect x="100" y="200" class="cell" fill="green"/>
    <rect x="150" y="200" class="cell" fill="green"/>
    <rect x="200" y="200" class="cell" fill="green"/>
    <line x1="0" y1="0" x2="50" y2="0" class="border"/>
    <line x1="50" y1="0" x2="50" y2="50" class="border"/>
    <line x1="0" y1="0" x2="0" y2="50" class="border"/>
    <line x1="50" y1="0" x2="100" y2="0" class="border"/>
    <line x1="50" y1="0" x2="50" y2="50" class="border"/>
    <line x1="100" y1="0" x2="150" y2="0" class="border"/>
    <line x1="100" y1="50" x2="150" y2="50" class="border"/>
    <line x1="150" y1="0" x2="200" y2="0" class="border"/>
    <line x1="150" y1="50" x2="200" y2="50" class="border"/>
    <line x1="200" y1="0" x2="250" y2="0" class="border"/>
    <line x1="250" y1="0" x2="250" y2="50" class="border"/>
    <line x1="0" y1="100" x2="50" y2="100" class="border"/>
    <line x1="0" y1="50" x2="0" y2="100" class="border"/>
    <line x1="100" y1="50" x2="100" y2="100" class="border"/>
    <line x1="50" y1="100" x2="100" y2="100" class="border"/>
    <line x1="100" y1="50" x2="150" y2="50" class="border"/>
    <line x1="150" y1="50" x2="150" y2="100" class="border"/>
    <line x1="100" y1="50" x2="100" y2="100" class="border"/>
    <line x1="150" y1="50" x2="200" y2="50" class="border"/>
    <line x1="150" y1="50" x2="150" y2="100" class="border"/>
    <line x1="250" y1="50" x2="250" y2="100" class="border"/>
    <line x1="200" y1="100" x2="250" y2="100" class="border"/>
    <line x1="0" y1="100" x2="50" y2="100" class="border"/>
    <line x1="50" y1="100" x2="50" y2="150" class="border"/>
    <line x1="0" y1="150" x2="50" y2="150" class="border"/>
    <line x1="0" y1="100" x2="0" y2="150" class="border"/>
    <line x1="50" y1="100" x2="100" y2="100" class="border"/>
    <line x1="100" y1="100" x2="100" y2="150" class="border"/>
    <line x1="50" y1="150" x2="100" y2="150" class="border"/>
    <line x1="50" y1="100" x2="50" y2="150" class="border"/>
    <line x1="150" y1="100" x2="150" y2="150" class="border"/>
    <line x1="100" y1="100" x2="100" y2="150" class="border"/>
    <line x1="200" y1="100" x2="200" y2="150" class="border"/>
    <line x1="150" y1="100" x2="150" y2="150" class="border"/>
    <line x1="200" y1="100" x2="250" y2="100" class="border"/>
    <line x1="250" y1="100" x2="250" y2="150" class="border"/>
    <line x1="200" y1="150" x2="250" y2="150" class="border"/>
    <line x1="200" y1="100" x2="200" y2="150" class="border"/>
    <line x1="0" y1="150" x2="50" y2="150" class="border"/>
    <line x1="50" y1="150" x2="50" y2="200" class="border"/>
    <line x1="0" y1="200" x2="50" y2="200" class="border"/>
    <line x1="0" y1="150" x2="0" y2="200" class="border"/>
    <line x1="50" y1="150" x2="100" y2="150" class="border"/>
    <line x1="100" y1="150" x2="100" y2="200" class="border"/>
    <line x1="50" y1="200" x2="100" y2="200" class="border"/>
    <line x1="50" y1="150" x2="50" y2="200" class="border"/>
    <line x1="100" y1="200" x2="150" y2="200" class="border"/>
    <line x1="100" y1="150" x2="100" y2="200" class="border"/>
    <line x1="200" y1="150" x2="200" y2="200" class="border"/>
    <line x1="150" y1="200" x2="200" y2="200" class="border"/>
    <line x1="200" y1="150" x2="250" y2="150" class="border"/>
    <line x1="250" y1="150" x2="250" y2="200" class="border"/>
    <line x1="200" y1="200" x2="250" y2="200" class="border"/>
    <line x1="200" y1="150" x2="200" y2="200" class="border"/>
    <line x1="0" y1="200" x2="50" y2="200" class="border"/>
    <line x1="50" y1="200" x2="50" y2="250" class="border"/>
    <line x1="0" y1="250" x2="50" y2="250" class="border"/>
    <line x1="0" y1="200" x2="0" y2="250" class="border"/>
    <line x1="50" y1="200" x2="100" y2="200" class="border"/>
    <line x1="100" y1="200" x2="100" y2="250" class="border"/>
    <line x1="50" y1="250" x2="100" y2="250" class="border"/>
    <line x1="50" y1="200" x2="50" y2="250" class="border"/>
    <line x1="100" y1="200" x2="150" y2="200" class="border"/>
    <line x1="150" y1="200" x2="150" y2="250" class="border"/>
    <line x1="100" y1="250" x2="150" y2="250" class="border"/>
    <line x1="100" y1="200" x2="100" y2="250" class="border"/>
    <line x1="150" y1="200" x2="200" y2="200" class="border"/>
    <line x1="200" y1="200" x2="200" y2="250" class="border"/>
    <line x1="150" y1="250" x2="200" y2="250" class="border"/>
    <line x1="150" y1="200" x2="150" y2="250" class="border"/>
    <line x1="200" y1="200" x2="250" y2="200" class="border"/>
    <line x1="250" y1="200" x2="250" y2="250" class="border"/>
    <line x1="200" y1="250" x2="250" y2="250" class="border"/>
    <line x1="200" y1="200" x2="200" y2="250" class="border"/>
  </svg>
